<svg xmlns="http://www.w3.org/2000/svg" viewBox="0 0 512 512" fill="none">
  <defs>
    <linearGradient id="bg" x1="0%" y1="0%" x2="100%" y2="100%">
      <stop offset="0%" stop-color="#0A0A12"/>
      <stop offset="100%" stop-color="#1A1A2E"/>
    </linearGradient>
    <linearGradient id="glow" x1="0%" y1="0%" x2="100%" y2="100%">
      <stop offset="0%" stop-color="#50C8FF" stop-opacity="0.4"/>
      <stop offset="100%" stop-color="#3C3CEB" stop-opacity="0.15"/>
    </linearGradient>
    <filter id="neonGlow" x="-20%" y="-20%" width="140%" height="140%">
      <feGaussianBlur stdDeviation="4" result="blur"/>
      <feMerge>
        <feMergeNode in="blur"/>
        <feMergeNode in="SourceGraphic"/>
      </feMerge>
    </filter>
  </defs>

  <rect width="512" height="512" fill="url(#bg)"/>

  <g transform="translate(106, 60)" filter="url(#neonGlow)">
    <path d="M100 340 L100 260 Q100 230 120 210 L140 190" stroke="#50C8FF" stroke-width="5" stroke-linecap="round" fill="none"/>
    <path d="M200 340 L200 260 Q200 230 180 210 L140 190" stroke="#50C8FF" stroke-width="5" stroke-linecap="round" fill="none"/>
    <path d="M100 260 Q90 200 110 160 L140 130 L170 160 Q190 200 200 260 Z" stroke="#50C8FF" stroke-width="5" stroke-linecap="round" stroke-linejoin="round" fill="url(#glow)"/>
    <path d="M100 220 Q60 200 50 160 Q40 120 60 110 Q80 100 90 130 L115 170" stroke="#50C8FF" stroke-width="5" stroke-linecap="round" fill="none"/>
    <path d="M120 160 L110 70 Q110 50 125 45 Q140 40 142 60 L142 130" stroke="#50C8FF" stroke-width="5" stroke-linecap="round" fill="none"/>
    <path d="M142 130 L142 40 Q142 15 158 10 Q174 5 175 30 L175 120" stroke="#50C8FF" stroke-width="5" stroke-linecap="round" fill="none"/>
    <path d="M175 130 L178 60 Q180 35 198 30 Q215 25 212 50 L200 125" stroke="#50C8FF" stroke-width="5" stroke-linecap="round" fill="none"/>
    <path d="M200 140 L210 70 Q212 45 228 42 Q244 40 240 65 L225 135" stroke="#50C8FF" stroke-width="5" stroke-linecap="round" fill="none"/>
    <g transform="translate(120, 190)">
      <path d="M18 0 L18 32 L9 24 L0 36 L7 38 L16 26 L18 32" fill="#F0F4F8" stroke="#0A0A12" stroke-width="1"/>
    </g>
    <circle cx="150" cy="200" r="70" stroke="#50C8FF" stroke-width="2" fill="none" opacity="0.12"/>
    <circle cx="150" cy="200" r="100" stroke="#50C8FF" stroke-width="2" fill="none" opacity="0.06"/>
    <circle cx="150" cy="200" r="130" stroke="#50C8FF" stroke-width="2" fill="none" opacity="0.03"/>
  </g>

  <text x="256" y="420" text-anchor="middle" font-family="'Space Grotesk', sans-serif" font-weight="700" font-size="48" fill="#50C8FF">Mã</text>
  <text x="313" y="420" text-anchor="start" font-family="'Space Grotesk', sans-serif" font-weight="400" font-size="48" fill="#F0F4F8">ouse</text>
</svg>